<?xml version="1.0" encoding="iso-8859-1"?>
<!-- Generator: Adobe Illustrator 18.1.1, SVG Export Plug-In . SVG Version: 6.00 Build 0)  -->
<svg version="1.1" id="Capa_1" xmlns="http://www.w3.org/2000/svg" xmlns:xlink="http://www.w3.org/1999/xlink" x="0px" y="0px"
	 viewBox="0 0 49.574 49.574" style="enable-background:new 0 0 49.574 49.574;" xml:space="preserve">
<g>
	<path style="fill:#030104;" d="M49.204,29.548c-0.276-0.871-0.765-1.648-1.512-2.187c-0.719-0.519-1.66-0.636-2.521-0.569
		c-0.977,0.076-1.879,0.449-2.861,0.475c0-0.072,0-0.144,0-0.215c0.044,0.004,0.082,0.026,0.127,0.018
		c2.048-0.401,3.135-2.351,4.01-4.066c0.007-0.013,0.005-0.024,0.011-0.037c0.088-0.137,0.095-0.312-0.073-0.447
		c-0.028-0.022-0.062-0.03-0.091-0.048c-0.016-0.01-0.031-0.017-0.048-0.025c-0.31-0.157-0.688-0.108-1.022-0.054
		c-0.588,0.097-1.163,0.328-1.681,0.62c-0.521,0.295-0.938,0.682-1.232,1.131c0-1.122,0-2.225,0-3.479
		c0.233,0.069,0.472,0.125,0.721,0.156c1.452,0.176,2.76-0.72,3.646-1.786c0.45-0.541,0.858-1.154,1.138-1.803
		c0.202-0.466-0.486-0.874-0.691-0.402c-0.324,0.751-0.81,1.458-1.375,2.046c-0.968,1.009-2.19,1.374-3.438,0.948
		c0-0.041,0-0.077,0-0.118H42.03c-0.104-0.045-0.207-0.083-0.311-0.14c-1.054-0.574-1.888-1.533-2.702-2.396
		c-0.59-0.625-1.15-1.277-1.742-1.902c-0.838-0.886-1.736-1.49-2.984-1.538c-1.485-0.058-3.022,0.379-4.453,0.71
		c-0.504,0.116-0.289,0.887,0.213,0.771c1.062-0.245,2.133-0.5,3.217-0.629c0.615-0.073,1.25-0.102,1.848,0.079
		c1.186,0.357,2.051,1.676,2.842,2.541c0.982,1.076,2.048,2.31,3.355,3.033c0,1.266,0,4.557,0,6.952
		c-0.707-0.121-1.398-0.334-2.119-0.393c-1.588-0.129-2.956,0.645-3.699,2.041c-1.853,3.482,0.389,7.792,3.416,9.77
		c0.562,0.336,1.316,0.369,1.95,0.418c0.955,0.074,1.92,0.054,2.874-0.024c0.771-0.063,1.6-0.146,2.314-0.46
		c0.916-0.402,1.672-1.346,2.217-2.152C49.593,34.411,49.92,31.804,49.204,29.548z M43.873,23.747
		c0.401-0.248,0.845-0.416,1.302-0.529c0.093-0.023,0.19-0.032,0.285-0.047c-0.657,1.253-1.476,2.54-2.826,3.002
		C42.496,25.159,42.956,24.315,43.873,23.747z M47.491,36.099c-0.619,0.916-1.425,1.694-2.519,1.926
		c-1.052,0.224-2.157,0.252-3.228,0.234c-0.731-0.01-1.781,0.045-2.435-0.347c-2.008-1.312-3.522-3.608-3.679-6.031
		c-0.071-1.103,0.228-2.237,0.854-3.149c0.537-0.782,1.419-1.133,2.341-1.151c0.533-0.011,1.06,0.097,1.571,0.235
		c0.707,0.193,1.437,0.275,2.167,0.253c1.166-0.036,2.225-0.567,3.409-0.482c2.235,0.161,2.841,2.767,2.801,4.604
		C48.745,33.587,48.267,34.947,47.491,36.099z"/>
	<path style="fill:#030104;" d="M15.605,9.754c2.386,0.286,3.728,2.109,4.703,4.149c0.223,0.467,0.913,0.061,0.691-0.402
		c-0.771-1.613-1.802-3.246-3.478-4.03c-1.399-0.655-2.999-0.615-4.508-0.596c-2.085,0.027-4.32,0.122-6.33-0.511
		c-0.693-0.218-1.364-0.601-1.7-1.269C4.746,6.625,4.801,6.05,4.926,5.558C5.062,5.023,5.313,4.525,5.6,4.055
		c0.106-0.174,0.22-0.342,0.34-0.507C6.05,3.397,5.956,3.52,6.035,3.423C6.36,3.028,5.798,2.459,5.469,2.857
		c-1.16,1.406-2.155,3.699-0.742,5.262C5.371,8.83,6.309,9.196,7.309,9.394c0,0.131,0,0.31,0,0.31s0,3.443,0,6.337
		c-1.08,0.2-1.906,1.143-1.913,2.278c0,0.097-0.049,0.151-0.111,0.157c-1.398,0.132-2.452,1.291-2.452,2.697
		c0,0.065,0.003,0.13,0.009,0.192c0,0.017-0.011,0.051-0.035,0.075c-0.034,0.036-0.066,0.04-0.09,0.04
		C1.207,21.488,0,22.703,0,24.189c0,1.403,1.051,2.562,2.444,2.697C2.531,26.896,2.62,26.9,2.709,26.9s0.178-0.004,0.268-0.014
		h9.515c0.098,0.01,0.188,0.014,0.278,0.014c1.502,0,2.725-1.221,2.725-2.723s-1.221-2.723-2.723-2.723
		c-0.037,0-0.077-0.016-0.1-0.04c-0.028-0.029-0.043-0.064-0.042-0.091c0.003-0.048,0.003-0.101,0.003-0.15
		c0-1.405-1.053-2.565-2.45-2.697c-0.063-0.006-0.113-0.06-0.113-0.124c0-1.103-0.752-2.014-1.761-2.272c0-2.653,0-4.519,0-6.375
		c0-0.063-0.014-0.11-0.021-0.165c0.723,0.076,1.441,0.099,2.067,0.124C12.1,9.733,13.867,9.546,15.605,9.754z M8.309,16.704
		c0-0.036,0-0.068,0-0.104c0.73,0.243,1.261,0.925,1.261,1.735v0.017c0,0.321,0.245,0.592,0.566,0.622
		c1.138,0.108,1.997,1.052,1.997,2.199c0,0.041,0,0.084-0.002,0.125c-0.009,0.17,0.06,0.338,0.179,0.46
		c0.118,0.125,0.29,0.196,0.463,0.196c1.224,0,2.223,0.996,2.223,2.223s-0.998,2.222-2.225,2.222c-0.071,0-0.142-0.002-0.217-0.01
		c-0.019-0.002-0.041-0.002-0.06-0.002H2.986c-0.021,0-0.041,0-0.06,0.002c-0.073,0.008-0.145,0.01-0.217,0.01
		s-0.144-0.004-0.217-0.01c-1.136-0.11-1.992-1.057-1.992-2.2c0-1.213,0.983-2.203,2.195-2.21c0.008,0,0.015,0,0.023,0
		c0.178,0,0.335-0.072,0.453-0.196c0.118-0.125,0.179-0.293,0.17-0.465c-0.004-0.047-0.006-0.097-0.006-0.146
		c0-1.145,0.858-2.091,1.999-2.199c0.318-0.03,0.564-0.299,0.564-0.622v-0.03c0.003-0.861,0.606-1.579,1.411-1.77
		c0,0.05,0,0.102,0,0.152h1V16.704z"/>
	<path style="fill:#030104;" d="M28.018,38.772c1.172-4.633,1.837-9.505,1.193-14.271c-0.291-2.163-0.836-4.399-1.95-6.298
		c-0.079-0.135-0.162-0.204-0.253-0.331c-0.168-0.235-0.433-0.215-0.699-0.188c0-0.182,0-3.184,0-5.227
		c2.146-0.26,3.814-1.922,3.814-3.95c0-2.207-1.969-4.003-4.389-4.003S21.345,6.3,21.345,8.507c0,2.074,1.745,3.765,3.963,3.964
		c0,1.744,0,3.488,0,5.232h-0.361c-0.09,0-0.158,0.013-0.226,0.026c-0.286,0.058-0.413,0.232-0.612,0.554
		c-0.722,1.169-1.3,2.394-1.762,3.687c-1.515,4.241-1.492,8.913-0.541,13.276c0.247,1.135,0.549,2.277,0.981,3.359
		c-1.905,2.432-3.812,4.863-5.717,7.296c-0.207,0.264-0.096,0.675,0.283,0.682c4.918,0.083,9.836,0.166,14.755,0.249
		c0.377,0.006,0.754,0.014,1.131,0.02c0.149,0.003,0.25-0.065,0.312-0.159c0.114-0.11,0.159-0.273,0.033-0.442
		C31.73,43.759,29.874,41.266,28.018,38.772z M22.346,8.508c0-1.656,1.52-3.003,3.389-3.003c1.868,0,3.389,1.347,3.389,3.003
		s-1.52,3.003-3.389,3.003C23.866,11.511,22.346,10.164,22.346,8.508z M18.485,45.802c-0.108-0.002-0.215-0.004-0.323-0.005
		c1.787-2.282,3.575-4.563,5.362-6.846c0.082-0.104,0.16-0.251,0.103-0.39c-0.856-2.058-1.304-4.352-1.539-6.556
		c-0.498-4.677,0.318-9.278,2.785-13.302c0.552,0,1.104,0,1.654,0c0.631,0.958,1.022,2.079,1.326,3.164
		c1.069,3.828,0.968,7.904,0.397,11.804c-0.178,1.22-0.416,2.408-0.687,3.609c-0.069,0.309-0.144,0.606-0.22,0.915
		c-0.055,0.225-0.268,0.648-0.104,0.869c0.032,0.043,0.063,0.084,0.096,0.125c0.59,0.793,1.181,1.584,1.771,2.378
		c1.109,1.49,2.22,2.979,3.329,4.47C27.787,45.96,23.136,45.881,18.485,45.802z"/>
	<path style="fill:#030104;" d="M12.502,27.134h-0.04h-1.47h-0.948H8.381H7.572H5.799H5.678H5.147H3.014h-0.01l-0.049,0.004
		L2.896,27.14L2.24,27.194l0.228,0.617l2.124,5.752l0.121,0.328h0.348h5.342h0.348l0.121-0.328l2.124-5.754l0.248-0.674h-0.717
		L12.502,27.134z M10.403,33.392H5.061l-2.124-5.754c0.026-0.002,0.052-0.002,0.077-0.004h2.132
		c-0.004,0.071-0.032,0.127-0.08,0.213c-0.088,0.162-0.207,0.381-0.144,0.738c0.062,0.357,0.25,0.523,0.385,0.643
		c0.105,0.094,0.153,0.137,0.176,0.27c0.024,0.133-0.006,0.189-0.073,0.312c-0.086,0.16-0.207,0.381-0.142,0.737
		c0.062,0.357,0.25,0.523,0.385,0.644c0.105,0.095,0.153,0.138,0.176,0.271c0.024,0.134-0.006,0.188-0.075,0.313
		c-0.086,0.16-0.204,0.38-0.142,0.736c0.028,0.159,0.166,0.271,0.321,0.271c0.019,0,0.039-0.002,0.058-0.006
		c0.176-0.03,0.295-0.2,0.265-0.377c-0.024-0.133,0.006-0.191,0.073-0.314c0.086-0.16,0.207-0.381,0.142-0.738
		c-0.062-0.357-0.25-0.523-0.385-0.643c-0.105-0.096-0.153-0.136-0.176-0.27c-0.024-0.133,0.006-0.19,0.073-0.313
		c0.088-0.161,0.207-0.381,0.144-0.737c-0.062-0.357-0.25-0.523-0.385-0.644c-0.105-0.093-0.153-0.136-0.176-0.269
		c-0.024-0.134,0.006-0.189,0.073-0.312c0.069-0.127,0.155-0.288,0.159-0.525h1.773c-0.022,0.043-0.052,0.082-0.095,0.137
		c-0.114,0.144-0.269,0.338-0.269,0.701s0.155,0.559,0.269,0.7c0.086,0.11,0.127,0.159,0.127,0.296c0,0.135-0.041,0.185-0.127,0.297
		c-0.114,0.142-0.269,0.338-0.269,0.698c0,0.364,0.155,0.56,0.269,0.701c0.086,0.112,0.127,0.161,0.127,0.297
		s-0.041,0.187-0.127,0.298c-0.114,0.141-0.269,0.338-0.269,0.7c0,0.179,0.146,0.325,0.327,0.325c0.179,0,0.325-0.146,0.325-0.325
		c0-0.136,0.041-0.187,0.127-0.297c0.114-0.142,0.269-0.338,0.269-0.701c0-0.364-0.155-0.559-0.269-0.7
		c-0.086-0.111-0.127-0.16-0.127-0.298c0-0.136,0.041-0.185,0.127-0.295c0.114-0.142,0.269-0.338,0.269-0.7
		c0-0.363-0.155-0.558-0.269-0.701c-0.086-0.11-0.127-0.16-0.127-0.295c0-0.137,0.041-0.186,0.127-0.295
		c0.095-0.121,0.219-0.281,0.256-0.543h1.801c-0.028,0.041-0.067,0.075-0.123,0.125c-0.136,0.12-0.323,0.286-0.385,0.644
		c-0.062,0.356,0.056,0.577,0.144,0.737c0.067,0.123,0.097,0.18,0.073,0.312s-0.071,0.176-0.176,0.27
		c-0.136,0.123-0.323,0.287-0.385,0.645s0.056,0.577,0.142,0.736c0.067,0.125,0.097,0.181,0.075,0.313
		c-0.024,0.134-0.073,0.177-0.176,0.269c-0.138,0.123-0.325,0.289-0.387,0.646c-0.03,0.176,0.088,0.347,0.265,0.377
		c0.019,0.004,0.039,0.006,0.058,0.006c0.155,0,0.293-0.112,0.321-0.271c0.024-0.133,0.071-0.176,0.176-0.27
		c0.136-0.119,0.323-0.285,0.385-0.643c0.062-0.359-0.056-0.579-0.142-0.738c-0.069-0.125-0.099-0.181-0.075-0.314
		s0.071-0.176,0.176-0.269c0.138-0.12,0.323-0.286,0.387-0.644c0.062-0.356-0.058-0.576-0.144-0.737
		c-0.067-0.123-0.097-0.179-0.073-0.312c0.021-0.133,0.071-0.176,0.174-0.27c0.133-0.118,0.312-0.277,0.379-0.613h1.73
		c0.022,0.002,0.043,0.002,0.065,0.002L10.403,33.392z"/>
</g>
<g>
</g>
<g>
</g>
<g>
</g>
<g>
</g>
<g>
</g>
<g>
</g>
<g>
</g>
<g>
</g>
<g>
</g>
<g>
</g>
<g>
</g>
<g>
</g>
<g>
</g>
<g>
</g>
<g>
</g>
</svg>
